<?xml version="1.0" standalone="no" ?>
<!DOCTYPE svg PUBLIC "-//W3C//DTD SVG 1.1//EN" "http://www.w3.org/Graphics/SVG/1.1/DTD/svg11.dtd">
<svg width="100px" height="100px" xmlns="http://www.w3.org/2000/svg" version="1.1" >
	<polygon points="0,100 100,100 100,0 0,0 " fill="none" stroke-width="3" stroke="rgb(0,128,0)" />
	<line x1="90" y1="50" x2="90" y2="40" stroke-width="0.25" stroke="rgb(255,0,0)" />
	<line x1="89.3923" y1="48.2635" x2="82.4464" y2="38.4154" stroke-width="0.25" stroke="rgb(0,0,255)" />
	<line x1="87.5877" y1="46.5798" x2="73.9069" y2="37.1829" stroke-width="0.25" stroke="rgb(0,128,0)" />
	<line x1="84.641" y1="45" x2="64.641" y2="36.3397" stroke-width="0.25" stroke="rgb(255,0,0)" />
	<line x1="80.6418" y1="43.5721" x2="54.9303" y2="35.9117" stroke-width="0.25" stroke="rgb(0,0,255)" />
	<line x1="75.7115" y1="42.3396" x2="45.0697" y2="35.9117" stroke-width="0.25" stroke="rgb(0,128,0)" />
	<line x1="70" y1="41.3397" x2="35.359" y2="36.3397" stroke-width="0.25" stroke="rgb(255,0,0)" />
	<line x1="63.6808" y1="40.6031" x2="26.0931" y2="37.1829" stroke-width="0.25" stroke="rgb(0,0,255)" />
	<line x1="56.9459" y1="40.1519" x2="17.5536" y2="38.4154" stroke-width="0.25" stroke="rgb(0,128,0)" />
	<line x1="50" y1="40" x2="10" y2="40" stroke-width="0.25" stroke="rgb(255,0,0)" />
	<line x1="43.0541" y1="40.1519" x2="3.66176" y2="41.8884" stroke-width="0.25" stroke="rgb(0,0,255)" />
	<line x1="36.3192" y1="40.6031" x2="-1.26851" y2="44.0233" stroke-width="0.25" stroke="rgb(0,128,0)" />
	<line x1="30" y1="41.3397" x2="-4.64102" y2="46.3397" stroke-width="0.25" stroke="rgb(255,0,0)" />
	<line x1="24.2885" y1="42.3396" x2="-6.35328" y2="48.7674" stroke-width="0.25" stroke="rgb(0,0,255)" />
	<line x1="19.3582" y1="43.5721" x2="-6.35328" y2="51.2326" stroke-width="0.25" stroke="rgb(0,128,0)" />
	<line x1="15.359" y1="45" x2="-4.64102" y2="53.6603" stroke-width="0.25" stroke="rgb(255,0,0)" />
	<line x1="12.4123" y1="46.5798" x2="-1.26851" y2="55.9767" stroke-width="0.25" stroke="rgb(0,0,255)" />
	<line x1="10.6077" y1="48.2635" x2="3.66176" y2="58.1116" stroke-width="0.25" stroke="rgb(0,128,0)" />
	<line x1="10" y1="50" x2="10" y2="60" stroke-width="0.25" stroke="rgb(255,0,0)" />
	<line x1="10.6077" y1="51.7365" x2="17.5536" y2="61.5846" stroke-width="0.25" stroke="rgb(0,0,255)" />
	<line x1="12.4123" y1="53.4202" x2="26.0931" y2="62.8171" stroke-width="0.25" stroke="rgb(0,128,0)" />
	<line x1="15.359" y1="55" x2="35.359" y2="63.6603" stroke-width="0.25" stroke="rgb(255,0,0)" />
	<line x1="19.3582" y1="56.4279" x2="45.0697" y2="64.0883" stroke-width="0.25" stroke="rgb(0,0,255)" />
	<line x1="24.2885" y1="57.6604" x2="54.9303" y2="64.0883" stroke-width="0.25" stroke="rgb(0,128,0)" />
	<line x1="30" y1="58.6603" x2="64.641" y2="63.6603" stroke-width="0.25" stroke="rgb(255,0,0)" />
	<line x1="36.3192" y1="59.3969" x2="73.9069" y2="62.8171" stroke-width="0.25" stroke="rgb(0,0,255)" />
	<line x1="43.0541" y1="59.8481" x2="82.4464" y2="61.5846" stroke-width="0.25" stroke="rgb(0,128,0)" />
	<line x1="50" y1="60" x2="90" y2="60" stroke-width="0.25" stroke="rgb(255,0,0)" />
	<line x1="56.9459" y1="59.8481" x2="96.3382" y2="58.1116" stroke-width="0.25" stroke="rgb(0,0,255)" />
	<line x1="63.6808" y1="59.3969" x2="101.269" y2="55.9767" stroke-width="0.25" stroke="rgb(0,128,0)" />
	<line x1="70" y1="58.6603" x2="104.641" y2="53.6603" stroke-width="0.25" stroke="rgb(255,0,0)" />
	<line x1="75.7115" y1="57.6604" x2="106.353" y2="51.2326" stroke-width="0.25" stroke="rgb(0,0,255)" />
	<line x1="80.6418" y1="56.4279" x2="106.353" y2="48.7674" stroke-width="0.25" stroke="rgb(0,128,0)" />
	<line x1="84.641" y1="55" x2="104.641" y2="46.3397" stroke-width="0.25" stroke="rgb(255,0,0)" />
	<line x1="87.5877" y1="53.4202" x2="101.269" y2="44.0233" stroke-width="0.25" stroke="rgb(0,0,255)" />
	<line x1="89.3923" y1="51.7365" x2="96.3382" y2="41.8884" stroke-width="0.25" stroke="rgb(0,128,0)" />
	<line x1="90" y1="50" x2="90" y2="40" stroke-width="0.25" stroke="rgb(255,0,0)" />
	<circle cx="90" cy="50" r="0.5" fill="rgb(0,0,0)" stroke-width="0.2" stroke="rgb(255,0,0)" />
	<circle cx="89.3923" cy="48.2635" r="0.5" fill="rgb(0,0,0)" stroke-width="0.2" stroke="rgb(0,0,255)" />
	<circle cx="87.5877" cy="46.5798" r="0.5" fill="rgb(0,0,0)" stroke-width="0.2" stroke="rgb(0,128,0)" />
	<circle cx="84.641" cy="45" r="0.5" fill="rgb(0,0,0)" stroke-width="0.2" stroke="rgb(255,0,0)" />
	<circle cx="80.6418" cy="43.5721" r="0.5" fill="rgb(0,0,0)" stroke-width="0.2" stroke="rgb(0,0,255)" />
	<circle cx="75.7115" cy="42.3396" r="0.5" fill="rgb(0,0,0)" stroke-width="0.2" stroke="rgb(0,128,0)" />
	<circle cx="70" cy="41.3397" r="0.5" fill="rgb(0,0,0)" stroke-width="0.2" stroke="rgb(255,0,0)" />
	<circle cx="63.6808" cy="40.6031" r="0.5" fill="rgb(0,0,0)" stroke-width="0.2" stroke="rgb(0,0,255)" />
	<circle cx="56.9459" cy="40.1519" r="0.5" fill="rgb(0,0,0)" stroke-width="0.2" stroke="rgb(0,128,0)" />
	<circle cx="50" cy="40" r="0.5" fill="rgb(0,0,0)" stroke-width="0.2" stroke="rgb(255,0,0)" />
	<circle cx="43.0541" cy="40.1519" r="0.5" fill="rgb(0,0,0)" stroke-width="0.2" stroke="rgb(0,0,255)" />
	<circle cx="36.3192" cy="40.6031" r="0.5" fill="rgb(0,0,0)" stroke-width="0.2" stroke="rgb(0,128,0)" />
	<circle cx="30" cy="41.3397" r="0.5" fill="rgb(0,0,0)" stroke-width="0.2" stroke="rgb(255,0,0)" />
	<circle cx="24.2885" cy="42.3396" r="0.5" fill="rgb(0,0,0)" stroke-width="0.2" stroke="rgb(0,0,255)" />
	<circle cx="19.3582" cy="43.5721" r="0.5" fill="rgb(0,0,0)" stroke-width="0.2" stroke="rgb(0,128,0)" />
	<circle cx="15.359" cy="45" r="0.5" fill="rgb(0,0,0)" stroke-width="0.2" stroke="rgb(255,0,0)" />
	<circle cx="12.4123" cy="46.5798" r="0.5" fill="rgb(0,0,0)" stroke-width="0.2" stroke="rgb(0,0,255)" />
	<circle cx="10.6077" cy="48.2635" r="0.5" fill="rgb(0,0,0)" stroke-width="0.2" stroke="rgb(0,128,0)" />
	<circle cx="10" cy="50" r="0.5" fill="rgb(0,0,0)" stroke-width="0.2" stroke="rgb(255,0,0)" />
	<circle cx="10.6077" cy="51.7365" r="0.5" fill="rgb(0,0,0)" stroke-width="0.2" stroke="rgb(0,0,255)" />
	<circle cx="12.4123" cy="53.4202" r="0.5" fill="rgb(0,0,0)" stroke-width="0.2" stroke="rgb(0,128,0)" />
	<circle cx="15.359" cy="55" r="0.5" fill="rgb(0,0,0)" stroke-width="0.2" stroke="rgb(255,0,0)" />
	<circle cx="19.3582" cy="56.4279" r="0.5" fill="rgb(0,0,0)" stroke-width="0.2" stroke="rgb(0,0,255)" />
	<circle cx="24.2885" cy="57.6604" r="0.5" fill="rgb(0,0,0)" stroke-width="0.2" stroke="rgb(0,128,0)" />
	<circle cx="30" cy="58.6603" r="0.5" fill="rgb(0,0,0)" stroke-width="0.2" stroke="rgb(255,0,0)" />
	<circle cx="36.3192" cy="59.3969" r="0.5" fill="rgb(0,0,0)" stroke-width="0.2" stroke="rgb(0,0,255)" />
	<circle cx="43.0541" cy="59.8481" r="0.5" fill="rgb(0,0,0)" stroke-width="0.2" stroke="rgb(0,128,0)" />
	<circle cx="50" cy="60" r="0.5" fill="rgb(0,0,0)" stroke-width="0.2" stroke="rgb(255,0,0)" />
	<circle cx="56.9459" cy="59.8481" r="0.5" fill="rgb(0,0,0)" stroke-width="0.2" stroke="rgb(0,0,255)" />
	<circle cx="63.6808" cy="59.3969" r="0.5" fill="rgb(0,0,0)" stroke-width="0.2" stroke="rgb(0,128,0)" />
	<circle cx="70" cy="58.6603" r="0.5" fill="rgb(0,0,0)" stroke-width="0.2" stroke="rgb(255,0,0)" />
	<circle cx="75.7115" cy="57.6604" r="0.5" fill="rgb(0,0,0)" stroke-width="0.2" stroke="rgb(0,0,255)" />
	<circle cx="80.6418" cy="56.4279" r="0.5" fill="rgb(0,0,0)" stroke-width="0.2" stroke="rgb(0,128,0)" />
	<circle cx="84.641" cy="55" r="0.5" fill="rgb(0,0,0)" stroke-width="0.2" stroke="rgb(255,0,0)" />
	<circle cx="87.5877" cy="53.4202" r="0.5" fill="rgb(0,0,0)" stroke-width="0.2" stroke="rgb(0,0,255)" />
	<circle cx="89.3923" cy="51.7365" r="0.5" fill="rgb(0,0,0)" stroke-width="0.2" stroke="rgb(0,128,0)" />
	<circle cx="90" cy="50" r="0.5" fill="rgb(0,0,0)" stroke-width="0.2" stroke="rgb(255,0,0)" />
</svg>
