<?xml version="1.0" standalone="no" ?>
<!DOCTYPE svg PUBLIC "-//W3C//DTD SVG 1.1//EN" "http://www.w3.org/Graphics/SVG/1.1/DTD/svg11.dtd">
<svg width="100px" height="100px" xmlns="http://www.w3.org/2000/svg" version="1.1" >
	<polygon points="0,100 100,100 100,0 0,0 " fill="none" stroke-width="3" stroke="rgb(0,128,0)" />
	<line x1="65" y1="50" x2="65" y2="48.4085" stroke-width="0.25" stroke="rgb(255,0,0)" />
	<line x1="64.4889" y1="49.5833" x2="60.6066" y2="47.9918" stroke-width="0.25" stroke="rgb(0,0,255)" />
	<line x1="62.9904" y1="49.1667" x2="55.4904" y2="47.5751" stroke-width="0.25" stroke="rgb(0,128,0)" />
	<line x1="60.6066" y1="48.75" x2="50" y2="47.1585" stroke-width="0.25" stroke="rgb(255,0,0)" />
	<line x1="57.5" y1="48.3333" x2="44.5096" y2="46.7418" stroke-width="0.25" stroke="rgb(0,0,255)" />
	<line x1="53.8823" y1="47.9167" x2="39.3934" y2="46.3251" stroke-width="0.25" stroke="rgb(0,128,0)" />
	<line x1="50" y1="47.5" x2="35" y2="45.9085" stroke-width="0.25" stroke="rgb(255,0,0)" />
	<line x1="46.1177" y1="47.0833" x2="31.6288" y2="45.4918" stroke-width="0.25" stroke="rgb(0,0,255)" />
	<line x1="42.5" y1="46.6667" x2="29.5096" y2="45.0751" stroke-width="0.25" stroke="rgb(0,128,0)" />
	<line x1="39.3934" y1="46.25" x2="28.7868" y2="44.6585" stroke-width="0.25" stroke="rgb(255,0,0)" />
	<line x1="37.0096" y1="45.8333" x2="29.5096" y2="44.2418" stroke-width="0.25" stroke="rgb(0,0,255)" />
	<line x1="35.5111" y1="45.4167" x2="31.6288" y2="43.8251" stroke-width="0.25" stroke="rgb(0,128,0)" />
	<line x1="35" y1="45" x2="35" y2="43.4085" stroke-width="0.25" stroke="rgb(255,0,0)" />
	<line x1="35.5111" y1="44.5833" x2="39.3934" y2="42.9918" stroke-width="0.25" stroke="rgb(0,0,255)" />
	<line x1="37.0096" y1="44.1667" x2="44.5096" y2="42.5751" stroke-width="0.25" stroke="rgb(0,128,0)" />
	<line x1="39.3934" y1="43.75" x2="50" y2="42.1585" stroke-width="0.25" stroke="rgb(255,0,0)" />
	<line x1="42.5" y1="43.3333" x2="55.4904" y2="41.7418" stroke-width="0.25" stroke="rgb(0,0,255)" />
	<line x1="46.1177" y1="42.9167" x2="60.6066" y2="41.3251" stroke-width="0.25" stroke="rgb(0,128,0)" />
	<line x1="50" y1="42.5" x2="65" y2="40.9085" stroke-width="0.25" stroke="rgb(255,0,0)" />
	<line x1="53.8823" y1="42.0833" x2="68.3712" y2="40.4918" stroke-width="0.25" stroke="rgb(0,0,255)" />
	<line x1="57.5" y1="41.6667" x2="70.4904" y2="40.0751" stroke-width="0.25" stroke="rgb(0,128,0)" />
	<line x1="60.6066" y1="41.25" x2="71.2132" y2="39.6585" stroke-width="0.25" stroke="rgb(255,0,0)" />
	<line x1="62.9904" y1="40.8333" x2="70.4904" y2="39.2418" stroke-width="0.25" stroke="rgb(0,0,255)" />
	<line x1="64.4889" y1="40.4167" x2="68.3712" y2="38.8251" stroke-width="0.25" stroke="rgb(0,128,0)" />
	<line x1="65" y1="40" x2="65" y2="38.4085" stroke-width="0.25" stroke="rgb(255,0,0)" />
	<line x1="64.4889" y1="39.5833" x2="60.6066" y2="37.9918" stroke-width="0.25" stroke="rgb(0,0,255)" />
	<line x1="62.9904" y1="39.1667" x2="55.4904" y2="37.5751" stroke-width="0.25" stroke="rgb(0,128,0)" />
	<line x1="60.6066" y1="38.75" x2="50" y2="37.1585" stroke-width="0.25" stroke="rgb(255,0,0)" />
	<line x1="57.5" y1="38.3333" x2="44.5096" y2="36.7418" stroke-width="0.25" stroke="rgb(0,0,255)" />
	<line x1="53.8823" y1="37.9167" x2="39.3934" y2="36.3251" stroke-width="0.25" stroke="rgb(0,128,0)" />
	<line x1="50" y1="37.5" x2="35" y2="35.9085" stroke-width="0.25" stroke="rgb(255,0,0)" />
	<line x1="46.1177" y1="37.0833" x2="31.6288" y2="35.4918" stroke-width="0.25" stroke="rgb(0,0,255)" />
	<line x1="42.5" y1="36.6667" x2="29.5096" y2="35.0751" stroke-width="0.25" stroke="rgb(0,128,0)" />
	<line x1="39.3934" y1="36.25" x2="28.7868" y2="34.6585" stroke-width="0.25" stroke="rgb(255,0,0)" />
	<line x1="37.0096" y1="35.8333" x2="29.5096" y2="34.2418" stroke-width="0.25" stroke="rgb(0,0,255)" />
	<line x1="35.5111" y1="35.4167" x2="31.6288" y2="33.8251" stroke-width="0.25" stroke="rgb(0,128,0)" />
	<line x1="35" y1="35" x2="35" y2="33.4085" stroke-width="0.25" stroke="rgb(255,0,0)" />
	<line x1="35.5111" y1="34.5833" x2="39.3934" y2="32.9918" stroke-width="0.25" stroke="rgb(0,0,255)" />
	<line x1="37.0096" y1="34.1667" x2="44.5096" y2="32.5751" stroke-width="0.25" stroke="rgb(0,128,0)" />
	<line x1="39.3934" y1="33.75" x2="50" y2="32.1585" stroke-width="0.25" stroke="rgb(255,0,0)" />
	<line x1="42.5" y1="33.3333" x2="55.4904" y2="31.7418" stroke-width="0.25" stroke="rgb(0,0,255)" />
	<line x1="46.1177" y1="32.9167" x2="60.6066" y2="31.3251" stroke-width="0.25" stroke="rgb(0,128,0)" />
	<line x1="50" y1="32.5" x2="65" y2="30.9085" stroke-width="0.25" stroke="rgb(255,0,0)" />
	<line x1="53.8823" y1="32.0833" x2="68.3712" y2="30.4918" stroke-width="0.25" stroke="rgb(0,0,255)" />
	<line x1="57.5" y1="31.6667" x2="70.4904" y2="30.0751" stroke-width="0.25" stroke="rgb(0,128,0)" />
	<line x1="60.6066" y1="31.25" x2="71.2132" y2="29.6585" stroke-width="0.25" stroke="rgb(255,0,0)" />
	<line x1="62.9904" y1="30.8333" x2="70.4904" y2="29.2418" stroke-width="0.25" stroke="rgb(0,0,255)" />
	<line x1="64.4889" y1="30.4167" x2="68.3712" y2="28.8251" stroke-width="0.25" stroke="rgb(0,128,0)" />
	<line x1="65" y1="30" x2="65" y2="28.4085" stroke-width="0.25" stroke="rgb(255,0,0)" />
	<line x1="64.4889" y1="29.5833" x2="60.6066" y2="27.9918" stroke-width="0.25" stroke="rgb(0,0,255)" />
	<line x1="62.9904" y1="29.1667" x2="55.4904" y2="27.5751" stroke-width="0.25" stroke="rgb(0,128,0)" />
	<line x1="60.6066" y1="28.75" x2="50" y2="27.1585" stroke-width="0.25" stroke="rgb(255,0,0)" />
	<line x1="57.5" y1="28.3333" x2="44.5096" y2="26.7418" stroke-width="0.25" stroke="rgb(0,0,255)" />
	<line x1="53.8823" y1="27.9167" x2="39.3934" y2="26.3251" stroke-width="0.25" stroke="rgb(0,128,0)" />
	<line x1="50" y1="27.5" x2="35" y2="25.9085" stroke-width="0.25" stroke="rgb(255,0,0)" />
	<line x1="46.1177" y1="27.0833" x2="31.6288" y2="25.4918" stroke-width="0.25" stroke="rgb(0,0,255)" />
	<line x1="42.5" y1="26.6667" x2="29.5096" y2="25.0751" stroke-width="0.25" stroke="rgb(0,128,0)" />
	<line x1="39.3934" y1="26.25" x2="28.7868" y2="24.6585" stroke-width="0.25" stroke="rgb(255,0,0)" />
	<line x1="37.0096" y1="25.8333" x2="29.5096" y2="24.2418" stroke-width="0.25" stroke="rgb(0,0,255)" />
	<line x1="35.5111" y1="25.4167" x2="31.6288" y2="23.8251" stroke-width="0.25" stroke="rgb(0,128,0)" />
	<line x1="35" y1="25" x2="35" y2="23.4085" stroke-width="0.25" stroke="rgb(255,0,0)" />
	<line x1="35.5111" y1="24.5833" x2="39.3934" y2="22.9918" stroke-width="0.25" stroke="rgb(0,0,255)" />
	<line x1="37.0096" y1="24.1667" x2="44.5096" y2="22.5751" stroke-width="0.25" stroke="rgb(0,128,0)" />
	<line x1="39.3934" y1="23.75" x2="50" y2="22.1585" stroke-width="0.25" stroke="rgb(255,0,0)" />
	<line x1="42.5" y1="23.3333" x2="55.4904" y2="21.7418" stroke-width="0.25" stroke="rgb(0,0,255)" />
	<line x1="46.1177" y1="22.9167" x2="60.6066" y2="21.3251" stroke-width="0.25" stroke="rgb(0,128,0)" />
	<line x1="50" y1="22.5" x2="65" y2="20.9085" stroke-width="0.25" stroke="rgb(255,0,0)" />
	<line x1="53.8823" y1="22.0833" x2="68.3712" y2="20.4918" stroke-width="0.25" stroke="rgb(0,0,255)" />
	<line x1="57.5" y1="21.6667" x2="70.4904" y2="20.0751" stroke-width="0.25" stroke="rgb(0,128,0)" />
	<line x1="60.6066" y1="21.25" x2="71.2132" y2="19.6585" stroke-width="0.25" stroke="rgb(255,0,0)" />
	<line x1="62.9904" y1="20.8333" x2="70.4904" y2="19.2418" stroke-width="0.25" stroke="rgb(0,0,255)" />
	<line x1="64.4889" y1="20.4167" x2="68.3712" y2="18.8251" stroke-width="0.25" stroke="rgb(0,128,0)" />
	<line x1="65" y1="20" x2="65" y2="18.4085" stroke-width="0.25" stroke="rgb(255,0,0)" />
	<line x1="64.4889" y1="19.5833" x2="60.6066" y2="17.9918" stroke-width="0.25" stroke="rgb(0,0,255)" />
	<line x1="62.9904" y1="19.1667" x2="55.4904" y2="17.5751" stroke-width="0.25" stroke="rgb(0,128,0)" />
	<line x1="60.6066" y1="18.75" x2="50" y2="17.1585" stroke-width="0.25" stroke="rgb(255,0,0)" />
	<line x1="57.5" y1="18.3333" x2="44.5096" y2="16.7418" stroke-width="0.25" stroke="rgb(0,0,255)" />
	<line x1="53.8823" y1="17.9167" x2="39.3934" y2="16.3251" stroke-width="0.25" stroke="rgb(0,128,0)" />
	<line x1="50" y1="17.5" x2="35" y2="15.9085" stroke-width="0.25" stroke="rgb(255,0,0)" />
	<line x1="46.1177" y1="17.0833" x2="31.6288" y2="15.4918" stroke-width="0.25" stroke="rgb(0,0,255)" />
	<line x1="42.5" y1="16.6667" x2="29.5096" y2="15.0751" stroke-width="0.25" stroke="rgb(0,128,0)" />
	<line x1="39.3934" y1="16.25" x2="28.7868" y2="14.6585" stroke-width="0.25" stroke="rgb(255,0,0)" />
	<line x1="37.0096" y1="15.8333" x2="29.5096" y2="14.2418" stroke-width="0.25" stroke="rgb(0,0,255)" />
	<line x1="35.5111" y1="15.4167" x2="31.6288" y2="13.8251" stroke-width="0.25" stroke="rgb(0,128,0)" />
	<line x1="35" y1="15" x2="35" y2="13.4085" stroke-width="0.25" stroke="rgb(255,0,0)" />
	<line x1="35.5111" y1="14.5833" x2="39.3934" y2="12.9918" stroke-width="0.25" stroke="rgb(0,0,255)" />
	<line x1="37.0096" y1="14.1667" x2="44.5096" y2="12.5751" stroke-width="0.25" stroke="rgb(0,128,0)" />
	<line x1="39.3934" y1="13.75" x2="50" y2="12.1585" stroke-width="0.25" stroke="rgb(255,0,0)" />
	<line x1="42.5" y1="13.3333" x2="55.4904" y2="11.7418" stroke-width="0.25" stroke="rgb(0,0,255)" />
	<line x1="46.1177" y1="12.9167" x2="60.6066" y2="11.3251" stroke-width="0.25" stroke="rgb(0,128,0)" />
	<line x1="50" y1="12.5" x2="65" y2="10.9085" stroke-width="0.25" stroke="rgb(255,0,0)" />
	<line x1="53.8823" y1="12.0833" x2="68.3712" y2="10.4918" stroke-width="0.25" stroke="rgb(0,0,255)" />
	<line x1="57.5" y1="11.6667" x2="70.4904" y2="10.0751" stroke-width="0.25" stroke="rgb(0,128,0)" />
	<line x1="60.6066" y1="11.25" x2="71.2132" y2="9.65845" stroke-width="0.25" stroke="rgb(255,0,0)" />
	<line x1="62.9904" y1="10.8333" x2="70.4904" y2="9.24178" stroke-width="0.25" stroke="rgb(0,0,255)" />
	<line x1="64.4889" y1="10.4167" x2="68.3712" y2="8.82512" stroke-width="0.25" stroke="rgb(0,128,0)" />
	<line x1="65" y1="10" x2="65" y2="8.40845" stroke-width="0.25" stroke="rgb(255,0,0)" />
	<line x1="64.4889" y1="9.58333" x2="60.6066" y2="7.99178" stroke-width="0.25" stroke="rgb(0,0,255)" />
	<line x1="62.9904" y1="9.16667" x2="55.4904" y2="7.57512" stroke-width="0.25" stroke="rgb(0,128,0)" />
	<line x1="60.6066" y1="8.75" x2="50" y2="7.15845" stroke-width="0.25" stroke="rgb(255,0,0)" />
	<line x1="57.5" y1="8.33333" x2="44.5096" y2="6.74178" stroke-width="0.25" stroke="rgb(0,0,255)" />
	<line x1="53.8823" y1="7.91667" x2="39.3934" y2="6.32512" stroke-width="0.25" stroke="rgb(0,128,0)" />
	<line x1="50" y1="7.5" x2="35" y2="5.90845" stroke-width="0.25" stroke="rgb(255,0,0)" />
	<line x1="46.1177" y1="7.08333" x2="31.6288" y2="5.49178" stroke-width="0.25" stroke="rgb(0,0,255)" />
	<line x1="42.5" y1="6.66667" x2="29.5096" y2="5.07512" stroke-width="0.25" stroke="rgb(0,128,0)" />
	<line x1="39.3934" y1="6.25" x2="28.7868" y2="4.65845" stroke-width="0.25" stroke="rgb(255,0,0)" />
	<line x1="37.0096" y1="5.83333" x2="29.5096" y2="4.24178" stroke-width="0.25" stroke="rgb(0,0,255)" />
	<line x1="35.5111" y1="5.41667" x2="31.6288" y2="3.82512" stroke-width="0.25" stroke="rgb(0,128,0)" />
	<line x1="35" y1="5" x2="35" y2="3.40845" stroke-width="0.25" stroke="rgb(255,0,0)" />
	<line x1="35.5111" y1="4.58333" x2="39.3934" y2="2.99178" stroke-width="0.25" stroke="rgb(0,0,255)" />
	<line x1="37.0096" y1="4.16667" x2="44.5096" y2="2.57512" stroke-width="0.25" stroke="rgb(0,128,0)" />
	<line x1="39.3934" y1="3.75" x2="50" y2="2.15845" stroke-width="0.25" stroke="rgb(255,0,0)" />
	<line x1="42.5" y1="3.33333" x2="55.4904" y2="1.74178" stroke-width="0.25" stroke="rgb(0,0,255)" />
	<line x1="46.1177" y1="2.91667" x2="60.6066" y2="1.32512" stroke-width="0.25" stroke="rgb(0,128,0)" />
	<line x1="50" y1="2.5" x2="65" y2="0.908451" stroke-width="0.25" stroke="rgb(255,0,0)" />
	<line x1="53.8823" y1="2.08333" x2="68.3712" y2="0.491784" stroke-width="0.25" stroke="rgb(0,0,255)" />
	<line x1="57.5" y1="1.66667" x2="70.4904" y2="0.0751172" stroke-width="0.25" stroke="rgb(0,128,0)" />
	<line x1="60.6066" y1="1.25" x2="71.2132" y2="-0.341549" stroke-width="0.25" stroke="rgb(255,0,0)" />
	<line x1="62.9904" y1="0.833333" x2="70.4904" y2="-0.758216" stroke-width="0.25" stroke="rgb(0,0,255)" />
	<line x1="64.4889" y1="0.416667" x2="68.3712" y2="-1.17488" stroke-width="0.25" stroke="rgb(0,128,0)" />
	<line x1="65" y1="0" x2="65" y2="-1.59155" stroke-width="0.25" stroke="rgb(255,0,0)" />
	<circle cx="65" cy="50" r="0.5" fill="rgb(0,0,0)" stroke-width="0.2" stroke="rgb(255,0,0)" />
	<circle cx="64.4889" cy="49.5833" r="0.5" fill="rgb(0,0,0)" stroke-width="0.2" stroke="rgb(0,0,255)" />
	<circle cx="62.9904" cy="49.1667" r="0.5" fill="rgb(0,0,0)" stroke-width="0.2" stroke="rgb(0,128,0)" />
	<circle cx="60.6066" cy="48.75" r="0.5" fill="rgb(0,0,0)" stroke-width="0.2" stroke="rgb(255,0,0)" />
	<circle cx="57.5" cy="48.3333" r="0.5" fill="rgb(0,0,0)" stroke-width="0.2" stroke="rgb(0,0,255)" />
	<circle cx="53.8823" cy="47.9167" r="0.5" fill="rgb(0,0,0)" stroke-width="0.2" stroke="rgb(0,128,0)" />
	<circle cx="50" cy="47.5" r="0.5" fill="rgb(0,0,0)" stroke-width="0.2" stroke="rgb(255,0,0)" />
	<circle cx="46.1177" cy="47.0833" r="0.5" fill="rgb(0,0,0)" stroke-width="0.2" stroke="rgb(0,0,255)" />
	<circle cx="42.5" cy="46.6667" r="0.5" fill="rgb(0,0,0)" stroke-width="0.2" stroke="rgb(0,128,0)" />
	<circle cx="39.3934" cy="46.25" r="0.5" fill="rgb(0,0,0)" stroke-width="0.2" stroke="rgb(255,0,0)" />
	<circle cx="37.0096" cy="45.8333" r="0.5" fill="rgb(0,0,0)" stroke-width="0.2" stroke="rgb(0,0,255)" />
	<circle cx="35.5111" cy="45.4167" r="0.5" fill="rgb(0,0,0)" stroke-width="0.2" stroke="rgb(0,128,0)" />
	<circle cx="35" cy="45" r="0.5" fill="rgb(0,0,0)" stroke-width="0.2" stroke="rgb(255,0,0)" />
	<circle cx="35.5111" cy="44.5833" r="0.5" fill="rgb(0,0,0)" stroke-width="0.2" stroke="rgb(0,0,255)" />
	<circle cx="37.0096" cy="44.1667" r="0.5" fill="rgb(0,0,0)" stroke-width="0.2" stroke="rgb(0,128,0)" />
	<circle cx="39.3934" cy="43.75" r="0.5" fill="rgb(0,0,0)" stroke-width="0.2" stroke="rgb(255,0,0)" />
	<circle cx="42.5" cy="43.3333" r="0.5" fill="rgb(0,0,0)" stroke-width="0.2" stroke="rgb(0,0,255)" />
	<circle cx="46.1177" cy="42.9167" r="0.5" fill="rgb(0,0,0)" stroke-width="0.2" stroke="rgb(0,128,0)" />
	<circle cx="50" cy="42.5" r="0.5" fill="rgb(0,0,0)" stroke-width="0.2" stroke="rgb(255,0,0)" />
	<circle cx="53.8823" cy="42.0833" r="0.5" fill="rgb(0,0,0)" stroke-width="0.2" stroke="rgb(0,0,255)" />
	<circle cx="57.5" cy="41.6667" r="0.5" fill="rgb(0,0,0)" stroke-width="0.2" stroke="rgb(0,128,0)" />
	<circle cx="60.6066" cy="41.25" r="0.5" fill="rgb(0,0,0)" stroke-width="0.2" stroke="rgb(255,0,0)" />
	<circle cx="62.9904" cy="40.8333" r="0.5" fill="rgb(0,0,0)" stroke-width="0.2" stroke="rgb(0,0,255)" />
	<circle cx="64.4889" cy="40.4167" r="0.5" fill="rgb(0,0,0)" stroke-width="0.2" stroke="rgb(0,128,0)" />
	<circle cx="65" cy="40" r="0.5" fill="rgb(0,0,0)" stroke-width="0.2" stroke="rgb(255,0,0)" />
	<circle cx="64.4889" cy="39.5833" r="0.5" fill="rgb(0,0,0)" stroke-width="0.2" stroke="rgb(0,0,255)" />
	<circle cx="62.9904" cy="39.1667" r="0.5" fill="rgb(0,0,0)" stroke-width="0.2" stroke="rgb(0,128,0)" />
	<circle cx="60.6066" cy="38.75" r="0.5" fill="rgb(0,0,0)" stroke-width="0.2" stroke="rgb(255,0,0)" />
	<circle cx="57.5" cy="38.3333" r="0.5" fill="rgb(0,0,0)" stroke-width="0.2" stroke="rgb(0,0,255)" />
	<circle cx="53.8823" cy="37.9167" r="0.5" fill="rgb(0,0,0)" stroke-width="0.2" stroke="rgb(0,128,0)" />
	<circle cx="50" cy="37.5" r="0.5" fill="rgb(0,0,0)" stroke-width="0.2" stroke="rgb(255,0,0)" />
	<circle cx="46.1177" cy="37.0833" r="0.5" fill="rgb(0,0,0)" stroke-width="0.2" stroke="rgb(0,0,255)" />
	<circle cx="42.5" cy="36.6667" r="0.5" fill="rgb(0,0,0)" stroke-width="0.2" stroke="rgb(0,128,0)" />
	<circle cx="39.3934" cy="36.25" r="0.5" fill="rgb(0,0,0)" stroke-width="0.2" stroke="rgb(255,0,0)" />
	<circle cx="37.0096" cy="35.8333" r="0.5" fill="rgb(0,0,0)" stroke-width="0.2" stroke="rgb(0,0,255)" />
	<circle cx="35.5111" cy="35.4167" r="0.5" fill="rgb(0,0,0)" stroke-width="0.2" stroke="rgb(0,128,0)" />
	<circle cx="35" cy="35" r="0.5" fill="rgb(0,0,0)" stroke-width="0.2" stroke="rgb(255,0,0)" />
	<circle cx="35.5111" cy="34.5833" r="0.5" fill="rgb(0,0,0)" stroke-width="0.2" stroke="rgb(0,0,255)" />
	<circle cx="37.0096" cy="34.1667" r="0.5" fill="rgb(0,0,0)" stroke-width="0.2" stroke="rgb(0,128,0)" />
	<circle cx="39.3934" cy="33.75" r="0.5" fill="rgb(0,0,0)" stroke-width="0.2" stroke="rgb(255,0,0)" />
	<circle cx="42.5" cy="33.3333" r="0.5" fill="rgb(0,0,0)" stroke-width="0.2" stroke="rgb(0,0,255)" />
	<circle cx="46.1177" cy="32.9167" r="0.5" fill="rgb(0,0,0)" stroke-width="0.2" stroke="rgb(0,128,0)" />
	<circle cx="50" cy="32.5" r="0.5" fill="rgb(0,0,0)" stroke-width="0.2" stroke="rgb(255,0,0)" />
	<circle cx="53.8823" cy="32.0833" r="0.5" fill="rgb(0,0,0)" stroke-width="0.2" stroke="rgb(0,0,255)" />
	<circle cx="57.5" cy="31.6667" r="0.5" fill="rgb(0,0,0)" stroke-width="0.2" stroke="rgb(0,128,0)" />
	<circle cx="60.6066" cy="31.25" r="0.5" fill="rgb(0,0,0)" stroke-width="0.2" stroke="rgb(255,0,0)" />
	<circle cx="62.9904" cy="30.8333" r="0.5" fill="rgb(0,0,0)" stroke-width="0.2" stroke="rgb(0,0,255)" />
	<circle cx="64.4889" cy="30.4167" r="0.5" fill="rgb(0,0,0)" stroke-width="0.2" stroke="rgb(0,128,0)" />
	<circle cx="65" cy="30" r="0.5" fill="rgb(0,0,0)" stroke-width="0.2" stroke="rgb(255,0,0)" />
	<circle cx="64.4889" cy="29.5833" r="0.5" fill="rgb(0,0,0)" stroke-width="0.2" stroke="rgb(0,0,255)" />
	<circle cx="62.9904" cy="29.1667" r="0.5" fill="rgb(0,0,0)" stroke-width="0.2" stroke="rgb(0,128,0)" />
	<circle cx="60.6066" cy="28.75" r="0.5" fill="rgb(0,0,0)" stroke-width="0.2" stroke="rgb(255,0,0)" />
	<circle cx="57.5" cy="28.3333" r="0.5" fill="rgb(0,0,0)" stroke-width="0.2" stroke="rgb(0,0,255)" />
	<circle cx="53.8823" cy="27.9167" r="0.5" fill="rgb(0,0,0)" stroke-width="0.2" stroke="rgb(0,128,0)" />
	<circle cx="50" cy="27.5" r="0.5" fill="rgb(0,0,0)" stroke-width="0.2" stroke="rgb(255,0,0)" />
	<circle cx="46.1177" cy="27.0833" r="0.5" fill="rgb(0,0,0)" stroke-width="0.2" stroke="rgb(0,0,255)" />
	<circle cx="42.5" cy="26.6667" r="0.5" fill="rgb(0,0,0)" stroke-width="0.2" stroke="rgb(0,128,0)" />
	<circle cx="39.3934" cy="26.25" r="0.5" fill="rgb(0,0,0)" stroke-width="0.2" stroke="rgb(255,0,0)" />
	<circle cx="37.0096" cy="25.8333" r="0.5" fill="rgb(0,0,0)" stroke-width="0.2" stroke="rgb(0,0,255)" />
	<circle cx="35.5111" cy="25.4167" r="0.5" fill="rgb(0,0,0)" stroke-width="0.2" stroke="rgb(0,128,0)" />
	<circle cx="35" cy="25" r="0.5" fill="rgb(0,0,0)" stroke-width="0.2" stroke="rgb(255,0,0)" />
	<circle cx="35.5111" cy="24.5833" r="0.5" fill="rgb(0,0,0)" stroke-width="0.2" stroke="rgb(0,0,255)" />
	<circle cx="37.0096" cy="24.1667" r="0.5" fill="rgb(0,0,0)" stroke-width="0.2" stroke="rgb(0,128,0)" />
	<circle cx="39.3934" cy="23.75" r="0.5" fill="rgb(0,0,0)" stroke-width="0.2" stroke="rgb(255,0,0)" />
	<circle cx="42.5" cy="23.3333" r="0.5" fill="rgb(0,0,0)" stroke-width="0.2" stroke="rgb(0,0,255)" />
	<circle cx="46.1177" cy="22.9167" r="0.5" fill="rgb(0,0,0)" stroke-width="0.2" stroke="rgb(0,128,0)" />
	<circle cx="50" cy="22.5" r="0.5" fill="rgb(0,0,0)" stroke-width="0.2" stroke="rgb(255,0,0)" />
	<circle cx="53.8823" cy="22.0833" r="0.5" fill="rgb(0,0,0)" stroke-width="0.2" stroke="rgb(0,0,255)" />
	<circle cx="57.5" cy="21.6667" r="0.5" fill="rgb(0,0,0)" stroke-width="0.2" stroke="rgb(0,128,0)" />
	<circle cx="60.6066" cy="21.25" r="0.5" fill="rgb(0,0,0)" stroke-width="0.2" stroke="rgb(255,0,0)" />
	<circle cx="62.9904" cy="20.8333" r="0.5" fill="rgb(0,0,0)" stroke-width="0.2" stroke="rgb(0,0,255)" />
	<circle cx="64.4889" cy="20.4167" r="0.5" fill="rgb(0,0,0)" stroke-width="0.2" stroke="rgb(0,128,0)" />
	<circle cx="65" cy="20" r="0.5" fill="rgb(0,0,0)" stroke-width="0.2" stroke="rgb(255,0,0)" />
	<circle cx="64.4889" cy="19.5833" r="0.5" fill="rgb(0,0,0)" stroke-width="0.2" stroke="rgb(0,0,255)" />
	<circle cx="62.9904" cy="19.1667" r="0.5" fill="rgb(0,0,0)" stroke-width="0.2" stroke="rgb(0,128,0)" />
	<circle cx="60.6066" cy="18.75" r="0.5" fill="rgb(0,0,0)" stroke-width="0.2" stroke="rgb(255,0,0)" />
	<circle cx="57.5" cy="18.3333" r="0.5" fill="rgb(0,0,0)" stroke-width="0.2" stroke="rgb(0,0,255)" />
	<circle cx="53.8823" cy="17.9167" r="0.5" fill="rgb(0,0,0)" stroke-width="0.2" stroke="rgb(0,128,0)" />
	<circle cx="50" cy="17.5" r="0.5" fill="rgb(0,0,0)" stroke-width="0.2" stroke="rgb(255,0,0)" />
	<circle cx="46.1177" cy="17.0833" r="0.5" fill="rgb(0,0,0)" stroke-width="0.2" stroke="rgb(0,0,255)" />
	<circle cx="42.5" cy="16.6667" r="0.5" fill="rgb(0,0,0)" stroke-width="0.2" stroke="rgb(0,128,0)" />
	<circle cx="39.3934" cy="16.25" r="0.5" fill="rgb(0,0,0)" stroke-width="0.2" stroke="rgb(255,0,0)" />
	<circle cx="37.0096" cy="15.8333" r="0.5" fill="rgb(0,0,0)" stroke-width="0.2" stroke="rgb(0,0,255)" />
	<circle cx="35.5111" cy="15.4167" r="0.5" fill="rgb(0,0,0)" stroke-width="0.2" stroke="rgb(0,128,0)" />
	<circle cx="35" cy="15" r="0.5" fill="rgb(0,0,0)" stroke-width="0.2" stroke="rgb(255,0,0)" />
	<circle cx="35.5111" cy="14.5833" r="0.5" fill="rgb(0,0,0)" stroke-width="0.2" stroke="rgb(0,0,255)" />
	<circle cx="37.0096" cy="14.1667" r="0.5" fill="rgb(0,0,0)" stroke-width="0.2" stroke="rgb(0,128,0)" />
	<circle cx="39.3934" cy="13.75" r="0.5" fill="rgb(0,0,0)" stroke-width="0.2" stroke="rgb(255,0,0)" />
	<circle cx="42.5" cy="13.3333" r="0.5" fill="rgb(0,0,0)" stroke-width="0.2" stroke="rgb(0,0,255)" />
	<circle cx="46.1177" cy="12.9167" r="0.5" fill="rgb(0,0,0)" stroke-width="0.2" stroke="rgb(0,128,0)" />
	<circle cx="50" cy="12.5" r="0.5" fill="rgb(0,0,0)" stroke-width="0.2" stroke="rgb(255,0,0)" />
	<circle cx="53.8823" cy="12.0833" r="0.5" fill="rgb(0,0,0)" stroke-width="0.2" stroke="rgb(0,0,255)" />
	<circle cx="57.5" cy="11.6667" r="0.5" fill="rgb(0,0,0)" stroke-width="0.2" stroke="rgb(0,128,0)" />
	<circle cx="60.6066" cy="11.25" r="0.5" fill="rgb(0,0,0)" stroke-width="0.2" stroke="rgb(255,0,0)" />
	<circle cx="62.9904" cy="10.8333" r="0.5" fill="rgb(0,0,0)" stroke-width="0.2" stroke="rgb(0,0,255)" />
	<circle cx="64.4889" cy="10.4167" r="0.5" fill="rgb(0,0,0)" stroke-width="0.2" stroke="rgb(0,128,0)" />
	<circle cx="65" cy="10" r="0.5" fill="rgb(0,0,0)" stroke-width="0.2" stroke="rgb(255,0,0)" />
	<circle cx="64.4889" cy="9.58333" r="0.5" fill="rgb(0,0,0)" stroke-width="0.2" stroke="rgb(0,0,255)" />
	<circle cx="62.9904" cy="9.16667" r="0.5" fill="rgb(0,0,0)" stroke-width="0.2" stroke="rgb(0,128,0)" />
	<circle cx="60.6066" cy="8.75" r="0.5" fill="rgb(0,0,0)" stroke-width="0.2" stroke="rgb(255,0,0)" />
	<circle cx="57.5" cy="8.33333" r="0.5" fill="rgb(0,0,0)" stroke-width="0.2" stroke="rgb(0,0,255)" />
	<circle cx="53.8823" cy="7.91667" r="0.5" fill="rgb(0,0,0)" stroke-width="0.2" stroke="rgb(0,128,0)" />
	<circle cx="50" cy="7.5" r="0.5" fill="rgb(0,0,0)" stroke-width="0.2" stroke="rgb(255,0,0)" />
	<circle cx="46.1177" cy="7.08333" r="0.5" fill="rgb(0,0,0)" stroke-width="0.2" stroke="rgb(0,0,255)" />
	<circle cx="42.5" cy="6.66667" r="0.5" fill="rgb(0,0,0)" stroke-width="0.2" stroke="rgb(0,128,0)" />
	<circle cx="39.3934" cy="6.25" r="0.5" fill="rgb(0,0,0)" stroke-width="0.2" stroke="rgb(255,0,0)" />
	<circle cx="37.0096" cy="5.83333" r="0.5" fill="rgb(0,0,0)" stroke-width="0.2" stroke="rgb(0,0,255)" />
	<circle cx="35.5111" cy="5.41667" r="0.5" fill="rgb(0,0,0)" stroke-width="0.2" stroke="rgb(0,128,0)" />
	<circle cx="35" cy="5" r="0.5" fill="rgb(0,0,0)" stroke-width="0.2" stroke="rgb(255,0,0)" />
	<circle cx="35.5111" cy="4.58333" r="0.5" fill="rgb(0,0,0)" stroke-width="0.2" stroke="rgb(0,0,255)" />
	<circle cx="37.0096" cy="4.16667" r="0.5" fill="rgb(0,0,0)" stroke-width="0.2" stroke="rgb(0,128,0)" />
	<circle cx="39.3934" cy="3.75" r="0.5" fill="rgb(0,0,0)" stroke-width="0.2" stroke="rgb(255,0,0)" />
	<circle cx="42.5" cy="3.33333" r="0.5" fill="rgb(0,0,0)" stroke-width="0.2" stroke="rgb(0,0,255)" />
	<circle cx="46.1177" cy="2.91667" r="0.5" fill="rgb(0,0,0)" stroke-width="0.2" stroke="rgb(0,128,0)" />
	<circle cx="50" cy="2.5" r="0.5" fill="rgb(0,0,0)" stroke-width="0.2" stroke="rgb(255,0,0)" />
	<circle cx="53.8823" cy="2.08333" r="0.5" fill="rgb(0,0,0)" stroke-width="0.2" stroke="rgb(0,0,255)" />
	<circle cx="57.5" cy="1.66667" r="0.5" fill="rgb(0,0,0)" stroke-width="0.2" stroke="rgb(0,128,0)" />
	<circle cx="60.6066" cy="1.25" r="0.5" fill="rgb(0,0,0)" stroke-width="0.2" stroke="rgb(255,0,0)" />
	<circle cx="62.9904" cy="0.833333" r="0.5" fill="rgb(0,0,0)" stroke-width="0.2" stroke="rgb(0,0,255)" />
	<circle cx="64.4889" cy="0.416667" r="0.5" fill="rgb(0,0,0)" stroke-width="0.2" stroke="rgb(0,128,0)" />
	<circle cx="65" cy="0" r="0.5" fill="rgb(0,0,0)" stroke-width="0.2" stroke="rgb(255,0,0)" />
</svg>
