<?xml version="1.0" standalone="no" ?>
<!DOCTYPE svg PUBLIC "-//W3C//DTD SVG 1.1//EN" "http://www.w3.org/Graphics/SVG/1.1/DTD/svg11.dtd">
<svg width="100px" height="100px" xmlns="http://www.w3.org/2000/svg" version="1.1" >
	<polygon points="0,100 100,100 100,0 0,0 " fill="none" stroke-width="3" stroke="rgb(0,128,0)" />
	<line x1="65" y1="50" x2="65" y2="35" stroke-width="0.25" stroke="rgb(255,0,0)" />
	<line x1="64.4889" y1="46.1177" x2="60.6066" y2="31.6288" stroke-width="0.25" stroke="rgb(0,0,255)" />
	<line x1="62.9904" y1="42.5" x2="55.4904" y2="29.5096" stroke-width="0.25" stroke="rgb(0,128,0)" />
	<line x1="60.6066" y1="39.3934" x2="50" y2="28.7868" stroke-width="0.25" stroke="rgb(255,0,0)" />
	<line x1="57.5" y1="37.0096" x2="44.5096" y2="29.5096" stroke-width="0.25" stroke="rgb(0,0,255)" />
	<line x1="53.8823" y1="35.5111" x2="39.3934" y2="31.6288" stroke-width="0.25" stroke="rgb(0,128,0)" />
	<line x1="50" y1="35" x2="35" y2="35" stroke-width="0.25" stroke="rgb(255,0,0)" />
	<line x1="46.1177" y1="35.5111" x2="31.6288" y2="39.3934" stroke-width="0.25" stroke="rgb(0,0,255)" />
	<line x1="42.5" y1="37.0096" x2="29.5096" y2="44.5096" stroke-width="0.25" stroke="rgb(0,128,0)" />
	<line x1="39.3934" y1="39.3934" x2="28.7868" y2="50" stroke-width="0.25" stroke="rgb(255,0,0)" />
	<line x1="37.0096" y1="42.5" x2="29.5096" y2="55.4904" stroke-width="0.25" stroke="rgb(0,0,255)" />
	<line x1="35.5111" y1="46.1177" x2="31.6288" y2="60.6066" stroke-width="0.25" stroke="rgb(0,128,0)" />
	<line x1="35" y1="50" x2="35" y2="65" stroke-width="0.25" stroke="rgb(255,0,0)" />
	<line x1="35.5111" y1="53.8823" x2="39.3934" y2="68.3712" stroke-width="0.25" stroke="rgb(0,0,255)" />
	<line x1="37.0096" y1="57.5" x2="44.5096" y2="70.4904" stroke-width="0.25" stroke="rgb(0,128,0)" />
	<line x1="39.3934" y1="60.6066" x2="50" y2="71.2132" stroke-width="0.25" stroke="rgb(255,0,0)" />
	<line x1="42.5" y1="62.9904" x2="55.4904" y2="70.4904" stroke-width="0.25" stroke="rgb(0,0,255)" />
	<line x1="46.1177" y1="64.4889" x2="60.6066" y2="68.3712" stroke-width="0.25" stroke="rgb(0,128,0)" />
	<line x1="50" y1="65" x2="65" y2="65" stroke-width="0.25" stroke="rgb(255,0,0)" />
	<line x1="53.8823" y1="64.4889" x2="68.3712" y2="60.6066" stroke-width="0.25" stroke="rgb(0,0,255)" />
	<line x1="57.5" y1="62.9904" x2="70.4904" y2="55.4904" stroke-width="0.25" stroke="rgb(0,128,0)" />
	<line x1="60.6066" y1="60.6066" x2="71.2132" y2="50" stroke-width="0.25" stroke="rgb(255,0,0)" />
	<line x1="62.9904" y1="57.5" x2="70.4904" y2="44.5096" stroke-width="0.25" stroke="rgb(0,0,255)" />
	<line x1="64.4889" y1="53.8823" x2="68.3712" y2="39.3934" stroke-width="0.25" stroke="rgb(0,128,0)" />
	<line x1="65" y1="50" x2="65" y2="35" stroke-width="0.25" stroke="rgb(255,0,0)" />
	<line x1="64.4889" y1="46.1177" x2="60.6066" y2="31.6288" stroke-width="0.25" stroke="rgb(0,0,255)" />
	<line x1="62.9904" y1="42.5" x2="55.4904" y2="29.5096" stroke-width="0.25" stroke="rgb(0,128,0)" />
	<line x1="60.6066" y1="39.3934" x2="50" y2="28.7868" stroke-width="0.25" stroke="rgb(255,0,0)" />
	<line x1="57.5" y1="37.0096" x2="44.5096" y2="29.5096" stroke-width="0.25" stroke="rgb(0,0,255)" />
	<line x1="53.8823" y1="35.5111" x2="39.3934" y2="31.6288" stroke-width="0.25" stroke="rgb(0,128,0)" />
	<line x1="50" y1="35" x2="35" y2="35" stroke-width="0.25" stroke="rgb(255,0,0)" />
	<line x1="46.1177" y1="35.5111" x2="31.6288" y2="39.3934" stroke-width="0.25" stroke="rgb(0,0,255)" />
	<line x1="42.5" y1="37.0096" x2="29.5096" y2="44.5096" stroke-width="0.25" stroke="rgb(0,128,0)" />
	<line x1="39.3934" y1="39.3934" x2="28.7868" y2="50" stroke-width="0.25" stroke="rgb(255,0,0)" />
	<line x1="37.0096" y1="42.5" x2="29.5096" y2="55.4904" stroke-width="0.25" stroke="rgb(0,0,255)" />
	<line x1="35.5111" y1="46.1177" x2="31.6288" y2="60.6066" stroke-width="0.25" stroke="rgb(0,128,0)" />
	<line x1="35" y1="50" x2="35" y2="65" stroke-width="0.25" stroke="rgb(255,0,0)" />
	<line x1="35.5111" y1="53.8823" x2="39.3934" y2="68.3712" stroke-width="0.25" stroke="rgb(0,0,255)" />
	<line x1="37.0096" y1="57.5" x2="44.5096" y2="70.4904" stroke-width="0.25" stroke="rgb(0,128,0)" />
	<line x1="39.3934" y1="60.6066" x2="50" y2="71.2132" stroke-width="0.25" stroke="rgb(255,0,0)" />
	<line x1="42.5" y1="62.9904" x2="55.4904" y2="70.4904" stroke-width="0.25" stroke="rgb(0,0,255)" />
	<line x1="46.1177" y1="64.4889" x2="60.6066" y2="68.3712" stroke-width="0.25" stroke="rgb(0,128,0)" />
	<line x1="50" y1="65" x2="65" y2="65" stroke-width="0.25" stroke="rgb(255,0,0)" />
	<line x1="53.8823" y1="64.4889" x2="68.3712" y2="60.6066" stroke-width="0.25" stroke="rgb(0,0,255)" />
	<line x1="57.5" y1="62.9904" x2="70.4904" y2="55.4904" stroke-width="0.25" stroke="rgb(0,128,0)" />
	<line x1="60.6066" y1="60.6066" x2="71.2132" y2="50" stroke-width="0.25" stroke="rgb(255,0,0)" />
	<line x1="62.9904" y1="57.5" x2="70.4904" y2="44.5096" stroke-width="0.25" stroke="rgb(0,0,255)" />
	<line x1="64.4889" y1="53.8823" x2="68.3712" y2="39.3934" stroke-width="0.25" stroke="rgb(0,128,0)" />
	<line x1="65" y1="50" x2="65" y2="35" stroke-width="0.25" stroke="rgb(255,0,0)" />
	<line x1="64.4889" y1="46.1177" x2="60.6066" y2="31.6288" stroke-width="0.25" stroke="rgb(0,0,255)" />
	<line x1="62.9904" y1="42.5" x2="55.4904" y2="29.5096" stroke-width="0.25" stroke="rgb(0,128,0)" />
	<line x1="60.6066" y1="39.3934" x2="50" y2="28.7868" stroke-width="0.25" stroke="rgb(255,0,0)" />
	<line x1="57.5" y1="37.0096" x2="44.5096" y2="29.5096" stroke-width="0.25" stroke="rgb(0,0,255)" />
	<line x1="53.8823" y1="35.5111" x2="39.3934" y2="31.6288" stroke-width="0.25" stroke="rgb(0,128,0)" />
	<line x1="50" y1="35" x2="35" y2="35" stroke-width="0.25" stroke="rgb(255,0,0)" />
	<line x1="46.1177" y1="35.5111" x2="31.6288" y2="39.3934" stroke-width="0.25" stroke="rgb(0,0,255)" />
	<line x1="42.5" y1="37.0096" x2="29.5096" y2="44.5096" stroke-width="0.25" stroke="rgb(0,128,0)" />
	<line x1="39.3934" y1="39.3934" x2="28.7868" y2="50" stroke-width="0.25" stroke="rgb(255,0,0)" />
	<line x1="37.0096" y1="42.5" x2="29.5096" y2="55.4904" stroke-width="0.25" stroke="rgb(0,0,255)" />
	<line x1="35.5111" y1="46.1177" x2="31.6288" y2="60.6066" stroke-width="0.25" stroke="rgb(0,128,0)" />
	<line x1="35" y1="50" x2="35" y2="65" stroke-width="0.25" stroke="rgb(255,0,0)" />
	<line x1="35.5111" y1="53.8823" x2="39.3934" y2="68.3712" stroke-width="0.25" stroke="rgb(0,0,255)" />
	<line x1="37.0096" y1="57.5" x2="44.5096" y2="70.4904" stroke-width="0.25" stroke="rgb(0,128,0)" />
	<line x1="39.3934" y1="60.6066" x2="50" y2="71.2132" stroke-width="0.25" stroke="rgb(255,0,0)" />
	<line x1="42.5" y1="62.9904" x2="55.4904" y2="70.4904" stroke-width="0.25" stroke="rgb(0,0,255)" />
	<line x1="46.1177" y1="64.4889" x2="60.6066" y2="68.3712" stroke-width="0.25" stroke="rgb(0,128,0)" />
	<line x1="50" y1="65" x2="65" y2="65" stroke-width="0.25" stroke="rgb(255,0,0)" />
	<line x1="53.8823" y1="64.4889" x2="68.3712" y2="60.6066" stroke-width="0.25" stroke="rgb(0,0,255)" />
	<line x1="57.5" y1="62.9904" x2="70.4904" y2="55.4904" stroke-width="0.25" stroke="rgb(0,128,0)" />
	<line x1="60.6066" y1="60.6066" x2="71.2132" y2="50" stroke-width="0.25" stroke="rgb(255,0,0)" />
	<line x1="62.9904" y1="57.5" x2="70.4904" y2="44.5096" stroke-width="0.25" stroke="rgb(0,0,255)" />
	<line x1="64.4889" y1="53.8823" x2="68.3712" y2="39.3934" stroke-width="0.25" stroke="rgb(0,128,0)" />
	<line x1="65" y1="50" x2="65" y2="35" stroke-width="0.25" stroke="rgb(255,0,0)" />
	<line x1="64.4889" y1="46.1177" x2="60.6066" y2="31.6288" stroke-width="0.25" stroke="rgb(0,0,255)" />
	<line x1="62.9904" y1="42.5" x2="55.4904" y2="29.5096" stroke-width="0.25" stroke="rgb(0,128,0)" />
	<line x1="60.6066" y1="39.3934" x2="50" y2="28.7868" stroke-width="0.25" stroke="rgb(255,0,0)" />
	<line x1="57.5" y1="37.0096" x2="44.5096" y2="29.5096" stroke-width="0.25" stroke="rgb(0,0,255)" />
	<line x1="53.8823" y1="35.5111" x2="39.3934" y2="31.6288" stroke-width="0.25" stroke="rgb(0,128,0)" />
	<line x1="50" y1="35" x2="35" y2="35" stroke-width="0.25" stroke="rgb(255,0,0)" />
	<line x1="46.1177" y1="35.5111" x2="31.6288" y2="39.3934" stroke-width="0.25" stroke="rgb(0,0,255)" />
	<line x1="42.5" y1="37.0096" x2="29.5096" y2="44.5096" stroke-width="0.25" stroke="rgb(0,128,0)" />
	<line x1="39.3934" y1="39.3934" x2="28.7868" y2="50" stroke-width="0.25" stroke="rgb(255,0,0)" />
	<line x1="37.0096" y1="42.5" x2="29.5096" y2="55.4904" stroke-width="0.25" stroke="rgb(0,0,255)" />
	<line x1="35.5111" y1="46.1177" x2="31.6288" y2="60.6066" stroke-width="0.25" stroke="rgb(0,128,0)" />
	<line x1="35" y1="50" x2="35" y2="65" stroke-width="0.25" stroke="rgb(255,0,0)" />
	<line x1="35.5111" y1="53.8823" x2="39.3934" y2="68.3712" stroke-width="0.25" stroke="rgb(0,0,255)" />
	<line x1="37.0096" y1="57.5" x2="44.5096" y2="70.4904" stroke-width="0.25" stroke="rgb(0,128,0)" />
	<line x1="39.3934" y1="60.6066" x2="50" y2="71.2132" stroke-width="0.25" stroke="rgb(255,0,0)" />
	<line x1="42.5" y1="62.9904" x2="55.4904" y2="70.4904" stroke-width="0.25" stroke="rgb(0,0,255)" />
	<line x1="46.1177" y1="64.4889" x2="60.6066" y2="68.3712" stroke-width="0.25" stroke="rgb(0,128,0)" />
	<line x1="50" y1="65" x2="65" y2="65" stroke-width="0.25" stroke="rgb(255,0,0)" />
	<line x1="53.8823" y1="64.4889" x2="68.3712" y2="60.6066" stroke-width="0.25" stroke="rgb(0,0,255)" />
	<line x1="57.5" y1="62.9904" x2="70.4904" y2="55.4904" stroke-width="0.25" stroke="rgb(0,128,0)" />
	<line x1="60.6066" y1="60.6066" x2="71.2132" y2="50" stroke-width="0.25" stroke="rgb(255,0,0)" />
	<line x1="62.9904" y1="57.5" x2="70.4904" y2="44.5096" stroke-width="0.25" stroke="rgb(0,0,255)" />
	<line x1="64.4889" y1="53.8823" x2="68.3712" y2="39.3934" stroke-width="0.25" stroke="rgb(0,128,0)" />
	<line x1="65" y1="50" x2="65" y2="35" stroke-width="0.25" stroke="rgb(255,0,0)" />
	<line x1="64.4889" y1="46.1177" x2="60.6066" y2="31.6288" stroke-width="0.25" stroke="rgb(0,0,255)" />
	<line x1="62.9904" y1="42.5" x2="55.4904" y2="29.5096" stroke-width="0.25" stroke="rgb(0,128,0)" />
	<line x1="60.6066" y1="39.3934" x2="50" y2="28.7868" stroke-width="0.25" stroke="rgb(255,0,0)" />
	<line x1="57.5" y1="37.0096" x2="44.5096" y2="29.5096" stroke-width="0.25" stroke="rgb(0,0,255)" />
	<line x1="53.8823" y1="35.5111" x2="39.3934" y2="31.6288" stroke-width="0.25" stroke="rgb(0,128,0)" />
	<line x1="50" y1="35" x2="35" y2="35" stroke-width="0.25" stroke="rgb(255,0,0)" />
	<line x1="46.1177" y1="35.5111" x2="31.6288" y2="39.3934" stroke-width="0.25" stroke="rgb(0,0,255)" />
	<line x1="42.5" y1="37.0096" x2="29.5096" y2="44.5096" stroke-width="0.25" stroke="rgb(0,128,0)" />
	<line x1="39.3934" y1="39.3934" x2="28.7868" y2="50" stroke-width="0.25" stroke="rgb(255,0,0)" />
	<line x1="37.0096" y1="42.5" x2="29.5096" y2="55.4904" stroke-width="0.25" stroke="rgb(0,0,255)" />
	<line x1="35.5111" y1="46.1177" x2="31.6288" y2="60.6066" stroke-width="0.25" stroke="rgb(0,128,0)" />
	<line x1="35" y1="50" x2="35" y2="65" stroke-width="0.25" stroke="rgb(255,0,0)" />
	<line x1="35.5111" y1="53.8823" x2="39.3934" y2="68.3712" stroke-width="0.25" stroke="rgb(0,0,255)" />
	<line x1="37.0096" y1="57.5" x2="44.5096" y2="70.4904" stroke-width="0.25" stroke="rgb(0,128,0)" />
	<line x1="39.3934" y1="60.6066" x2="50" y2="71.2132" stroke-width="0.25" stroke="rgb(255,0,0)" />
	<line x1="42.5" y1="62.9904" x2="55.4904" y2="70.4904" stroke-width="0.25" stroke="rgb(0,0,255)" />
	<line x1="46.1177" y1="64.4889" x2="60.6066" y2="68.3712" stroke-width="0.25" stroke="rgb(0,128,0)" />
	<line x1="50" y1="65" x2="65" y2="65" stroke-width="0.25" stroke="rgb(255,0,0)" />
	<line x1="53.8823" y1="64.4889" x2="68.3712" y2="60.6066" stroke-width="0.25" stroke="rgb(0,0,255)" />
	<line x1="57.5" y1="62.9904" x2="70.4904" y2="55.4904" stroke-width="0.25" stroke="rgb(0,128,0)" />
	<line x1="60.6066" y1="60.6066" x2="71.2132" y2="50" stroke-width="0.25" stroke="rgb(255,0,0)" />
	<line x1="62.9904" y1="57.5" x2="70.4904" y2="44.5096" stroke-width="0.25" stroke="rgb(0,0,255)" />
	<line x1="64.4889" y1="53.8823" x2="68.3712" y2="39.3934" stroke-width="0.25" stroke="rgb(0,128,0)" />
	<line x1="65" y1="50" x2="65" y2="35" stroke-width="0.25" stroke="rgb(255,0,0)" />
	<circle cx="65" cy="50" r="0.5" fill="rgb(0,0,0)" stroke-width="0.2" stroke="rgb(255,0,0)" />
	<circle cx="64.4889" cy="46.1177" r="0.5" fill="rgb(0,0,0)" stroke-width="0.2" stroke="rgb(0,0,255)" />
	<circle cx="62.9904" cy="42.5" r="0.5" fill="rgb(0,0,0)" stroke-width="0.2" stroke="rgb(0,128,0)" />
	<circle cx="60.6066" cy="39.3934" r="0.5" fill="rgb(0,0,0)" stroke-width="0.2" stroke="rgb(255,0,0)" />
	<circle cx="57.5" cy="37.0096" r="0.5" fill="rgb(0,0,0)" stroke-width="0.2" stroke="rgb(0,0,255)" />
	<circle cx="53.8823" cy="35.5111" r="0.5" fill="rgb(0,0,0)" stroke-width="0.2" stroke="rgb(0,128,0)" />
	<circle cx="50" cy="35" r="0.5" fill="rgb(0,0,0)" stroke-width="0.2" stroke="rgb(255,0,0)" />
	<circle cx="46.1177" cy="35.5111" r="0.5" fill="rgb(0,0,0)" stroke-width="0.2" stroke="rgb(0,0,255)" />
	<circle cx="42.5" cy="37.0096" r="0.5" fill="rgb(0,0,0)" stroke-width="0.2" stroke="rgb(0,128,0)" />
	<circle cx="39.3934" cy="39.3934" r="0.5" fill="rgb(0,0,0)" stroke-width="0.2" stroke="rgb(255,0,0)" />
	<circle cx="37.0096" cy="42.5" r="0.5" fill="rgb(0,0,0)" stroke-width="0.2" stroke="rgb(0,0,255)" />
	<circle cx="35.5111" cy="46.1177" r="0.5" fill="rgb(0,0,0)" stroke-width="0.2" stroke="rgb(0,128,0)" />
	<circle cx="35" cy="50" r="0.5" fill="rgb(0,0,0)" stroke-width="0.2" stroke="rgb(255,0,0)" />
	<circle cx="35.5111" cy="53.8823" r="0.5" fill="rgb(0,0,0)" stroke-width="0.2" stroke="rgb(0,0,255)" />
	<circle cx="37.0096" cy="57.5" r="0.5" fill="rgb(0,0,0)" stroke-width="0.2" stroke="rgb(0,128,0)" />
	<circle cx="39.3934" cy="60.6066" r="0.5" fill="rgb(0,0,0)" stroke-width="0.2" stroke="rgb(255,0,0)" />
	<circle cx="42.5" cy="62.9904" r="0.5" fill="rgb(0,0,0)" stroke-width="0.2" stroke="rgb(0,0,255)" />
	<circle cx="46.1177" cy="64.4889" r="0.5" fill="rgb(0,0,0)" stroke-width="0.2" stroke="rgb(0,128,0)" />
	<circle cx="50" cy="65" r="0.5" fill="rgb(0,0,0)" stroke-width="0.2" stroke="rgb(255,0,0)" />
	<circle cx="53.8823" cy="64.4889" r="0.5" fill="rgb(0,0,0)" stroke-width="0.2" stroke="rgb(0,0,255)" />
	<circle cx="57.5" cy="62.9904" r="0.5" fill="rgb(0,0,0)" stroke-width="0.2" stroke="rgb(0,128,0)" />
	<circle cx="60.6066" cy="60.6066" r="0.5" fill="rgb(0,0,0)" stroke-width="0.2" stroke="rgb(255,0,0)" />
	<circle cx="62.9904" cy="57.5" r="0.5" fill="rgb(0,0,0)" stroke-width="0.2" stroke="rgb(0,0,255)" />
	<circle cx="64.4889" cy="53.8823" r="0.5" fill="rgb(0,0,0)" stroke-width="0.2" stroke="rgb(0,128,0)" />
	<circle cx="65" cy="50" r="0.5" fill="rgb(0,0,0)" stroke-width="0.2" stroke="rgb(255,0,0)" />
	<circle cx="64.4889" cy="46.1177" r="0.5" fill="rgb(0,0,0)" stroke-width="0.2" stroke="rgb(0,0,255)" />
	<circle cx="62.9904" cy="42.5" r="0.5" fill="rgb(0,0,0)" stroke-width="0.2" stroke="rgb(0,128,0)" />
	<circle cx="60.6066" cy="39.3934" r="0.5" fill="rgb(0,0,0)" stroke-width="0.2" stroke="rgb(255,0,0)" />
	<circle cx="57.5" cy="37.0096" r="0.5" fill="rgb(0,0,0)" stroke-width="0.2" stroke="rgb(0,0,255)" />
	<circle cx="53.8823" cy="35.5111" r="0.5" fill="rgb(0,0,0)" stroke-width="0.2" stroke="rgb(0,128,0)" />
	<circle cx="50" cy="35" r="0.5" fill="rgb(0,0,0)" stroke-width="0.2" stroke="rgb(255,0,0)" />
	<circle cx="46.1177" cy="35.5111" r="0.5" fill="rgb(0,0,0)" stroke-width="0.2" stroke="rgb(0,0,255)" />
	<circle cx="42.5" cy="37.0096" r="0.5" fill="rgb(0,0,0)" stroke-width="0.2" stroke="rgb(0,128,0)" />
	<circle cx="39.3934" cy="39.3934" r="0.5" fill="rgb(0,0,0)" stroke-width="0.2" stroke="rgb(255,0,0)" />
	<circle cx="37.0096" cy="42.5" r="0.5" fill="rgb(0,0,0)" stroke-width="0.2" stroke="rgb(0,0,255)" />
	<circle cx="35.5111" cy="46.1177" r="0.5" fill="rgb(0,0,0)" stroke-width="0.2" stroke="rgb(0,128,0)" />
	<circle cx="35" cy="50" r="0.5" fill="rgb(0,0,0)" stroke-width="0.2" stroke="rgb(255,0,0)" />
	<circle cx="35.5111" cy="53.8823" r="0.5" fill="rgb(0,0,0)" stroke-width="0.2" stroke="rgb(0,0,255)" />
	<circle cx="37.0096" cy="57.5" r="0.5" fill="rgb(0,0,0)" stroke-width="0.2" stroke="rgb(0,128,0)" />
	<circle cx="39.3934" cy="60.6066" r="0.5" fill="rgb(0,0,0)" stroke-width="0.2" stroke="rgb(255,0,0)" />
	<circle cx="42.5" cy="62.9904" r="0.5" fill="rgb(0,0,0)" stroke-width="0.2" stroke="rgb(0,0,255)" />
	<circle cx="46.1177" cy="64.4889" r="0.5" fill="rgb(0,0,0)" stroke-width="0.2" stroke="rgb(0,128,0)" />
	<circle cx="50" cy="65" r="0.5" fill="rgb(0,0,0)" stroke-width="0.2" stroke="rgb(255,0,0)" />
	<circle cx="53.8823" cy="64.4889" r="0.5" fill="rgb(0,0,0)" stroke-width="0.2" stroke="rgb(0,0,255)" />
	<circle cx="57.5" cy="62.9904" r="0.5" fill="rgb(0,0,0)" stroke-width="0.2" stroke="rgb(0,128,0)" />
	<circle cx="60.6066" cy="60.6066" r="0.5" fill="rgb(0,0,0)" stroke-width="0.2" stroke="rgb(255,0,0)" />
	<circle cx="62.9904" cy="57.5" r="0.5" fill="rgb(0,0,0)" stroke-width="0.2" stroke="rgb(0,0,255)" />
	<circle cx="64.4889" cy="53.8823" r="0.5" fill="rgb(0,0,0)" stroke-width="0.2" stroke="rgb(0,128,0)" />
	<circle cx="65" cy="50" r="0.5" fill="rgb(0,0,0)" stroke-width="0.2" stroke="rgb(255,0,0)" />
	<circle cx="64.4889" cy="46.1177" r="0.5" fill="rgb(0,0,0)" stroke-width="0.2" stroke="rgb(0,0,255)" />
	<circle cx="62.9904" cy="42.5" r="0.5" fill="rgb(0,0,0)" stroke-width="0.2" stroke="rgb(0,128,0)" />
	<circle cx="60.6066" cy="39.3934" r="0.5" fill="rgb(0,0,0)" stroke-width="0.2" stroke="rgb(255,0,0)" />
	<circle cx="57.5" cy="37.0096" r="0.5" fill="rgb(0,0,0)" stroke-width="0.2" stroke="rgb(0,0,255)" />
	<circle cx="53.8823" cy="35.5111" r="0.5" fill="rgb(0,0,0)" stroke-width="0.2" stroke="rgb(0,128,0)" />
	<circle cx="50" cy="35" r="0.5" fill="rgb(0,0,0)" stroke-width="0.2" stroke="rgb(255,0,0)" />
	<circle cx="46.1177" cy="35.5111" r="0.5" fill="rgb(0,0,0)" stroke-width="0.2" stroke="rgb(0,0,255)" />
	<circle cx="42.5" cy="37.0096" r="0.5" fill="rgb(0,0,0)" stroke-width="0.2" stroke="rgb(0,128,0)" />
	<circle cx="39.3934" cy="39.3934" r="0.5" fill="rgb(0,0,0)" stroke-width="0.2" stroke="rgb(255,0,0)" />
	<circle cx="37.0096" cy="42.5" r="0.5" fill="rgb(0,0,0)" stroke-width="0.2" stroke="rgb(0,0,255)" />
	<circle cx="35.5111" cy="46.1177" r="0.5" fill="rgb(0,0,0)" stroke-width="0.2" stroke="rgb(0,128,0)" />
	<circle cx="35" cy="50" r="0.5" fill="rgb(0,0,0)" stroke-width="0.2" stroke="rgb(255,0,0)" />
	<circle cx="35.5111" cy="53.8823" r="0.5" fill="rgb(0,0,0)" stroke-width="0.2" stroke="rgb(0,0,255)" />
	<circle cx="37.0096" cy="57.5" r="0.5" fill="rgb(0,0,0)" stroke-width="0.2" stroke="rgb(0,128,0)" />
	<circle cx="39.3934" cy="60.6066" r="0.5" fill="rgb(0,0,0)" stroke-width="0.2" stroke="rgb(255,0,0)" />
	<circle cx="42.5" cy="62.9904" r="0.5" fill="rgb(0,0,0)" stroke-width="0.2" stroke="rgb(0,0,255)" />
	<circle cx="46.1177" cy="64.4889" r="0.5" fill="rgb(0,0,0)" stroke-width="0.2" stroke="rgb(0,128,0)" />
	<circle cx="50" cy="65" r="0.5" fill="rgb(0,0,0)" stroke-width="0.2" stroke="rgb(255,0,0)" />
	<circle cx="53.8823" cy="64.4889" r="0.5" fill="rgb(0,0,0)" stroke-width="0.2" stroke="rgb(0,0,255)" />
	<circle cx="57.5" cy="62.9904" r="0.5" fill="rgb(0,0,0)" stroke-width="0.2" stroke="rgb(0,128,0)" />
	<circle cx="60.6066" cy="60.6066" r="0.5" fill="rgb(0,0,0)" stroke-width="0.2" stroke="rgb(255,0,0)" />
	<circle cx="62.9904" cy="57.5" r="0.5" fill="rgb(0,0,0)" stroke-width="0.2" stroke="rgb(0,0,255)" />
	<circle cx="64.4889" cy="53.8823" r="0.5" fill="rgb(0,0,0)" stroke-width="0.2" stroke="rgb(0,128,0)" />
	<circle cx="65" cy="50" r="0.5" fill="rgb(0,0,0)" stroke-width="0.2" stroke="rgb(255,0,0)" />
	<circle cx="64.4889" cy="46.1177" r="0.5" fill="rgb(0,0,0)" stroke-width="0.2" stroke="rgb(0,0,255)" />
	<circle cx="62.9904" cy="42.5" r="0.5" fill="rgb(0,0,0)" stroke-width="0.2" stroke="rgb(0,128,0)" />
	<circle cx="60.6066" cy="39.3934" r="0.5" fill="rgb(0,0,0)" stroke-width="0.2" stroke="rgb(255,0,0)" />
	<circle cx="57.5" cy="37.0096" r="0.5" fill="rgb(0,0,0)" stroke-width="0.2" stroke="rgb(0,0,255)" />
	<circle cx="53.8823" cy="35.5111" r="0.5" fill="rgb(0,0,0)" stroke-width="0.2" stroke="rgb(0,128,0)" />
	<circle cx="50" cy="35" r="0.5" fill="rgb(0,0,0)" stroke-width="0.2" stroke="rgb(255,0,0)" />
	<circle cx="46.1177" cy="35.5111" r="0.5" fill="rgb(0,0,0)" stroke-width="0.2" stroke="rgb(0,0,255)" />
	<circle cx="42.5" cy="37.0096" r="0.5" fill="rgb(0,0,0)" stroke-width="0.2" stroke="rgb(0,128,0)" />
	<circle cx="39.3934" cy="39.3934" r="0.5" fill="rgb(0,0,0)" stroke-width="0.2" stroke="rgb(255,0,0)" />
	<circle cx="37.0096" cy="42.5" r="0.5" fill="rgb(0,0,0)" stroke-width="0.2" stroke="rgb(0,0,255)" />
	<circle cx="35.5111" cy="46.1177" r="0.5" fill="rgb(0,0,0)" stroke-width="0.2" stroke="rgb(0,128,0)" />
	<circle cx="35" cy="50" r="0.5" fill="rgb(0,0,0)" stroke-width="0.2" stroke="rgb(255,0,0)" />
	<circle cx="35.5111" cy="53.8823" r="0.5" fill="rgb(0,0,0)" stroke-width="0.2" stroke="rgb(0,0,255)" />
	<circle cx="37.0096" cy="57.5" r="0.5" fill="rgb(0,0,0)" stroke-width="0.2" stroke="rgb(0,128,0)" />
	<circle cx="39.3934" cy="60.6066" r="0.5" fill="rgb(0,0,0)" stroke-width="0.2" stroke="rgb(255,0,0)" />
	<circle cx="42.5" cy="62.9904" r="0.5" fill="rgb(0,0,0)" stroke-width="0.2" stroke="rgb(0,0,255)" />
	<circle cx="46.1177" cy="64.4889" r="0.5" fill="rgb(0,0,0)" stroke-width="0.2" stroke="rgb(0,128,0)" />
	<circle cx="50" cy="65" r="0.5" fill="rgb(0,0,0)" stroke-width="0.2" stroke="rgb(255,0,0)" />
	<circle cx="53.8823" cy="64.4889" r="0.5" fill="rgb(0,0,0)" stroke-width="0.2" stroke="rgb(0,0,255)" />
	<circle cx="57.5" cy="62.9904" r="0.5" fill="rgb(0,0,0)" stroke-width="0.2" stroke="rgb(0,128,0)" />
	<circle cx="60.6066" cy="60.6066" r="0.5" fill="rgb(0,0,0)" stroke-width="0.2" stroke="rgb(255,0,0)" />
	<circle cx="62.9904" cy="57.5" r="0.5" fill="rgb(0,0,0)" stroke-width="0.2" stroke="rgb(0,0,255)" />
	<circle cx="64.4889" cy="53.8823" r="0.5" fill="rgb(0,0,0)" stroke-width="0.2" stroke="rgb(0,128,0)" />
	<circle cx="65" cy="50" r="0.5" fill="rgb(0,0,0)" stroke-width="0.2" stroke="rgb(255,0,0)" />
	<circle cx="64.4889" cy="46.1177" r="0.5" fill="rgb(0,0,0)" stroke-width="0.2" stroke="rgb(0,0,255)" />
	<circle cx="62.9904" cy="42.5" r="0.5" fill="rgb(0,0,0)" stroke-width="0.2" stroke="rgb(0,128,0)" />
	<circle cx="60.6066" cy="39.3934" r="0.5" fill="rgb(0,0,0)" stroke-width="0.2" stroke="rgb(255,0,0)" />
	<circle cx="57.5" cy="37.0096" r="0.5" fill="rgb(0,0,0)" stroke-width="0.2" stroke="rgb(0,0,255)" />
	<circle cx="53.8823" cy="35.5111" r="0.5" fill="rgb(0,0,0)" stroke-width="0.2" stroke="rgb(0,128,0)" />
	<circle cx="50" cy="35" r="0.5" fill="rgb(0,0,0)" stroke-width="0.2" stroke="rgb(255,0,0)" />
	<circle cx="46.1177" cy="35.5111" r="0.5" fill="rgb(0,0,0)" stroke-width="0.2" stroke="rgb(0,0,255)" />
	<circle cx="42.5" cy="37.0096" r="0.5" fill="rgb(0,0,0)" stroke-width="0.2" stroke="rgb(0,128,0)" />
	<circle cx="39.3934" cy="39.3934" r="0.5" fill="rgb(0,0,0)" stroke-width="0.2" stroke="rgb(255,0,0)" />
	<circle cx="37.0096" cy="42.5" r="0.5" fill="rgb(0,0,0)" stroke-width="0.2" stroke="rgb(0,0,255)" />
	<circle cx="35.5111" cy="46.1177" r="0.5" fill="rgb(0,0,0)" stroke-width="0.2" stroke="rgb(0,128,0)" />
	<circle cx="35" cy="50" r="0.5" fill="rgb(0,0,0)" stroke-width="0.2" stroke="rgb(255,0,0)" />
	<circle cx="35.5111" cy="53.8823" r="0.5" fill="rgb(0,0,0)" stroke-width="0.2" stroke="rgb(0,0,255)" />
	<circle cx="37.0096" cy="57.5" r="0.5" fill="rgb(0,0,0)" stroke-width="0.2" stroke="rgb(0,128,0)" />
	<circle cx="39.3934" cy="60.6066" r="0.5" fill="rgb(0,0,0)" stroke-width="0.2" stroke="rgb(255,0,0)" />
	<circle cx="42.5" cy="62.9904" r="0.5" fill="rgb(0,0,0)" stroke-width="0.2" stroke="rgb(0,0,255)" />
	<circle cx="46.1177" cy="64.4889" r="0.5" fill="rgb(0,0,0)" stroke-width="0.2" stroke="rgb(0,128,0)" />
	<circle cx="50" cy="65" r="0.5" fill="rgb(0,0,0)" stroke-width="0.2" stroke="rgb(255,0,0)" />
	<circle cx="53.8823" cy="64.4889" r="0.5" fill="rgb(0,0,0)" stroke-width="0.2" stroke="rgb(0,0,255)" />
	<circle cx="57.5" cy="62.9904" r="0.5" fill="rgb(0,0,0)" stroke-width="0.2" stroke="rgb(0,128,0)" />
	<circle cx="60.6066" cy="60.6066" r="0.5" fill="rgb(0,0,0)" stroke-width="0.2" stroke="rgb(255,0,0)" />
	<circle cx="62.9904" cy="57.5" r="0.5" fill="rgb(0,0,0)" stroke-width="0.2" stroke="rgb(0,0,255)" />
	<circle cx="64.4889" cy="53.8823" r="0.5" fill="rgb(0,0,0)" stroke-width="0.2" stroke="rgb(0,128,0)" />
	<circle cx="65" cy="50" r="0.5" fill="rgb(0,0,0)" stroke-width="0.2" stroke="rgb(255,0,0)" />
</svg>
