<?xml version="1.0" standalone="no" ?>
<!DOCTYPE svg PUBLIC "-//W3C//DTD SVG 1.1//EN" "http://www.w3.org/Graphics/SVG/1.1/DTD/svg11.dtd">
<svg width="100px" height="100px" xmlns="http://www.w3.org/2000/svg" version="1.1" >
	<polygon points="0,100 100,100 100,0 0,0 " fill="none" stroke-width="3" stroke="rgb(0,128,0)" />
	<line x1="70" y1="50" x2="70" y2="30" stroke-width="0.25" stroke="rgb(255,0,0)" />
	<line x1="69.6962" y1="46.527" x2="66.2232" y2="26.8309" stroke-width="0.25" stroke="rgb(0,0,255)" />
	<line x1="68.7939" y1="43.1596" x2="61.9534" y2="24.3657" stroke-width="0.25" stroke="rgb(0,128,0)" />
	<line x1="67.3205" y1="40" x2="57.3205" y2="22.6795" stroke-width="0.25" stroke="rgb(255,0,0)" />
	<line x1="65.3209" y1="37.1442" x2="52.4651" y2="21.8234" stroke-width="0.25" stroke="rgb(0,0,255)" />
	<line x1="62.8558" y1="34.6791" x2="47.5349" y2="21.8234" stroke-width="0.25" stroke="rgb(0,128,0)" />
	<line x1="60" y1="32.6795" x2="42.6795" y2="22.6795" stroke-width="0.25" stroke="rgb(255,0,0)" />
	<line x1="56.8404" y1="31.2061" x2="38.0466" y2="24.3657" stroke-width="0.25" stroke="rgb(0,0,255)" />
	<line x1="53.473" y1="30.3038" x2="33.7768" y2="26.8309" stroke-width="0.25" stroke="rgb(0,128,0)" />
	<line x1="50" y1="30" x2="30" y2="30" stroke-width="0.25" stroke="rgb(255,0,0)" />
	<line x1="46.527" y1="30.3038" x2="26.8309" y2="33.7768" stroke-width="0.25" stroke="rgb(0,0,255)" />
	<line x1="43.1596" y1="31.2061" x2="24.3657" y2="38.0466" stroke-width="0.25" stroke="rgb(0,128,0)" />
	<line x1="40" y1="32.6795" x2="22.6795" y2="42.6795" stroke-width="0.25" stroke="rgb(255,0,0)" />
	<line x1="37.1442" y1="34.6791" x2="21.8234" y2="47.5349" stroke-width="0.25" stroke="rgb(0,0,255)" />
	<line x1="34.6791" y1="37.1442" x2="21.8234" y2="52.4651" stroke-width="0.25" stroke="rgb(0,128,0)" />
	<line x1="32.6795" y1="40" x2="22.6795" y2="57.3205" stroke-width="0.25" stroke="rgb(255,0,0)" />
	<line x1="31.2061" y1="43.1596" x2="24.3657" y2="61.9534" stroke-width="0.25" stroke="rgb(0,0,255)" />
	<line x1="30.3038" y1="46.527" x2="26.8309" y2="66.2232" stroke-width="0.25" stroke="rgb(0,128,0)" />
	<line x1="30" y1="50" x2="30" y2="70" stroke-width="0.25" stroke="rgb(255,0,0)" />
	<line x1="30.3038" y1="53.473" x2="33.7768" y2="73.1691" stroke-width="0.25" stroke="rgb(0,0,255)" />
	<line x1="31.2061" y1="56.8404" x2="38.0466" y2="75.6343" stroke-width="0.25" stroke="rgb(0,128,0)" />
	<line x1="32.6795" y1="60" x2="42.6795" y2="77.3205" stroke-width="0.25" stroke="rgb(255,0,0)" />
	<line x1="34.6791" y1="62.8558" x2="47.5349" y2="78.1766" stroke-width="0.25" stroke="rgb(0,0,255)" />
	<line x1="37.1442" y1="65.3209" x2="52.4651" y2="78.1766" stroke-width="0.25" stroke="rgb(0,128,0)" />
	<line x1="40" y1="67.3205" x2="57.3205" y2="77.3205" stroke-width="0.25" stroke="rgb(255,0,0)" />
	<line x1="43.1596" y1="68.7939" x2="61.9534" y2="75.6343" stroke-width="0.25" stroke="rgb(0,0,255)" />
	<line x1="46.527" y1="69.6962" x2="66.2232" y2="73.1691" stroke-width="0.25" stroke="rgb(0,128,0)" />
	<line x1="50" y1="70" x2="70" y2="70" stroke-width="0.25" stroke="rgb(255,0,0)" />
	<line x1="53.473" y1="69.6962" x2="73.1691" y2="66.2232" stroke-width="0.25" stroke="rgb(0,0,255)" />
	<line x1="56.8404" y1="68.7939" x2="75.6343" y2="61.9534" stroke-width="0.25" stroke="rgb(0,128,0)" />
	<line x1="60" y1="67.3205" x2="77.3205" y2="57.3205" stroke-width="0.25" stroke="rgb(255,0,0)" />
	<line x1="62.8558" y1="65.3209" x2="78.1766" y2="52.4651" stroke-width="0.25" stroke="rgb(0,0,255)" />
	<line x1="65.3209" y1="62.8558" x2="78.1766" y2="47.5349" stroke-width="0.25" stroke="rgb(0,128,0)" />
	<line x1="67.3205" y1="60" x2="77.3205" y2="42.6795" stroke-width="0.25" stroke="rgb(255,0,0)" />
	<line x1="68.7939" y1="56.8404" x2="75.6343" y2="38.0466" stroke-width="0.25" stroke="rgb(0,0,255)" />
	<line x1="69.6962" y1="53.473" x2="73.1691" y2="33.7768" stroke-width="0.25" stroke="rgb(0,128,0)" />
	<line x1="70" y1="50" x2="70" y2="30" stroke-width="0.25" stroke="rgb(255,0,0)" />
	<circle cx="70" cy="50" r="0.5" fill="rgb(0,0,0)" stroke-width="0.2" stroke="rgb(255,0,0)" />
	<circle cx="69.6962" cy="46.527" r="0.5" fill="rgb(0,0,0)" stroke-width="0.2" stroke="rgb(0,0,255)" />
	<circle cx="68.7939" cy="43.1596" r="0.5" fill="rgb(0,0,0)" stroke-width="0.2" stroke="rgb(0,128,0)" />
	<circle cx="67.3205" cy="40" r="0.5" fill="rgb(0,0,0)" stroke-width="0.2" stroke="rgb(255,0,0)" />
	<circle cx="65.3209" cy="37.1442" r="0.5" fill="rgb(0,0,0)" stroke-width="0.2" stroke="rgb(0,0,255)" />
	<circle cx="62.8558" cy="34.6791" r="0.5" fill="rgb(0,0,0)" stroke-width="0.2" stroke="rgb(0,128,0)" />
	<circle cx="60" cy="32.6795" r="0.5" fill="rgb(0,0,0)" stroke-width="0.2" stroke="rgb(255,0,0)" />
	<circle cx="56.8404" cy="31.2061" r="0.5" fill="rgb(0,0,0)" stroke-width="0.2" stroke="rgb(0,0,255)" />
	<circle cx="53.473" cy="30.3038" r="0.5" fill="rgb(0,0,0)" stroke-width="0.2" stroke="rgb(0,128,0)" />
	<circle cx="50" cy="30" r="0.5" fill="rgb(0,0,0)" stroke-width="0.2" stroke="rgb(255,0,0)" />
	<circle cx="46.527" cy="30.3038" r="0.5" fill="rgb(0,0,0)" stroke-width="0.2" stroke="rgb(0,0,255)" />
	<circle cx="43.1596" cy="31.2061" r="0.5" fill="rgb(0,0,0)" stroke-width="0.2" stroke="rgb(0,128,0)" />
	<circle cx="40" cy="32.6795" r="0.5" fill="rgb(0,0,0)" stroke-width="0.2" stroke="rgb(255,0,0)" />
	<circle cx="37.1442" cy="34.6791" r="0.5" fill="rgb(0,0,0)" stroke-width="0.2" stroke="rgb(0,0,255)" />
	<circle cx="34.6791" cy="37.1442" r="0.5" fill="rgb(0,0,0)" stroke-width="0.2" stroke="rgb(0,128,0)" />
	<circle cx="32.6795" cy="40" r="0.5" fill="rgb(0,0,0)" stroke-width="0.2" stroke="rgb(255,0,0)" />
	<circle cx="31.2061" cy="43.1596" r="0.5" fill="rgb(0,0,0)" stroke-width="0.2" stroke="rgb(0,0,255)" />
	<circle cx="30.3038" cy="46.527" r="0.5" fill="rgb(0,0,0)" stroke-width="0.2" stroke="rgb(0,128,0)" />
	<circle cx="30" cy="50" r="0.5" fill="rgb(0,0,0)" stroke-width="0.2" stroke="rgb(255,0,0)" />
	<circle cx="30.3038" cy="53.473" r="0.5" fill="rgb(0,0,0)" stroke-width="0.2" stroke="rgb(0,0,255)" />
	<circle cx="31.2061" cy="56.8404" r="0.5" fill="rgb(0,0,0)" stroke-width="0.2" stroke="rgb(0,128,0)" />
	<circle cx="32.6795" cy="60" r="0.5" fill="rgb(0,0,0)" stroke-width="0.2" stroke="rgb(255,0,0)" />
	<circle cx="34.6791" cy="62.8558" r="0.5" fill="rgb(0,0,0)" stroke-width="0.2" stroke="rgb(0,0,255)" />
	<circle cx="37.1442" cy="65.3209" r="0.5" fill="rgb(0,0,0)" stroke-width="0.2" stroke="rgb(0,128,0)" />
	<circle cx="40" cy="67.3205" r="0.5" fill="rgb(0,0,0)" stroke-width="0.2" stroke="rgb(255,0,0)" />
	<circle cx="43.1596" cy="68.7939" r="0.5" fill="rgb(0,0,0)" stroke-width="0.2" stroke="rgb(0,0,255)" />
	<circle cx="46.527" cy="69.6962" r="0.5" fill="rgb(0,0,0)" stroke-width="0.2" stroke="rgb(0,128,0)" />
	<circle cx="50" cy="70" r="0.5" fill="rgb(0,0,0)" stroke-width="0.2" stroke="rgb(255,0,0)" />
	<circle cx="53.473" cy="69.6962" r="0.5" fill="rgb(0,0,0)" stroke-width="0.2" stroke="rgb(0,0,255)" />
	<circle cx="56.8404" cy="68.7939" r="0.5" fill="rgb(0,0,0)" stroke-width="0.2" stroke="rgb(0,128,0)" />
	<circle cx="60" cy="67.3205" r="0.5" fill="rgb(0,0,0)" stroke-width="0.2" stroke="rgb(255,0,0)" />
	<circle cx="62.8558" cy="65.3209" r="0.5" fill="rgb(0,0,0)" stroke-width="0.2" stroke="rgb(0,0,255)" />
	<circle cx="65.3209" cy="62.8558" r="0.5" fill="rgb(0,0,0)" stroke-width="0.2" stroke="rgb(0,128,0)" />
	<circle cx="67.3205" cy="60" r="0.5" fill="rgb(0,0,0)" stroke-width="0.2" stroke="rgb(255,0,0)" />
	<circle cx="68.7939" cy="56.8404" r="0.5" fill="rgb(0,0,0)" stroke-width="0.2" stroke="rgb(0,0,255)" />
	<circle cx="69.6962" cy="53.473" r="0.5" fill="rgb(0,0,0)" stroke-width="0.2" stroke="rgb(0,128,0)" />
	<circle cx="70" cy="50" r="0.5" fill="rgb(0,0,0)" stroke-width="0.2" stroke="rgb(255,0,0)" />
</svg>
